HIERARCHY
ROOT hip
{
  OFFSET 0 0 0
  CHANNELS 6 Xposition Yposition Zposition Zrotation Yrotation Xrotation
  JOINT abdomen
  {
    OFFSET 0 20.6881 -0.73152
    CHANNELS 3 Zrotation Xrotation Yrotation
    JOINT chest
    {
      OFFSET 0 11.7043 -0.48768
      CHANNELS 3 Zrotation Xrotation Yrotation
      JOINT neck
      {
        OFFSET 0 22.1894 -2.19456
        CHANNELS 3 Zrotation Xrotation Yrotation
        JOINT head
        {
          OFFSET -0.24384 7.07133 1.2192
          CHANNELS 3 Zrotation Xrotation Yrotation
          JOINT leftEye
          {
            OFFSET 4.14528 8.04674 8.04672
            CHANNELS 3 Zrotation Xrotation Yrotation
            End Site
            {
              OFFSET 1 0 0
            }
          }
          JOINT rightEye
          {
            OFFSET -3.6576 8.04674 8.04672
            CHANNELS 3 Zrotation Xrotation Yrotation
            End Site
            {
              OFFSET 1 0 0
            }
          }
        }
      }
      JOINT rCollar
      {
        OFFSET -2.68224 19.2634 -4.8768
        CHANNELS 3 Zrotation Xrotation Yrotation
        JOINT rShldr
        {
          OFFSET -8.77824 -1.95073 1.46304
          CHANNELS 3 Zrotation Xrotation Yrotation
          JOINT rForeArm
          {
            OFFSET -28.1742 -1.7115 0.48768
            CHANNELS 3 Zrotation Xrotation Yrotation
            JOINT rHand
            {
              OFFSET -22.5879 0.773209 7.07136
              CHANNELS 3 Zrotation Xrotation Yrotation
              JOINT rThumb1
              {
                OFFSET -1.2192 -0.487915 3.41376
                CHANNELS 3 Zrotation Xrotation Yrotation
                JOINT rThumb2
                {
                  OFFSET -3.37035 -0.52449 3.41376
                  CHANNELS 3 Zrotation Xrotation Yrotation
                  End Site
                  {
                    OFFSET -1.78271 -1.18214 1.43049
                  }
                }
              }
              JOINT rIndex1
              {
                OFFSET -7.75947 0.938293 5.60832
                CHANNELS 3 Zrotation Xrotation Yrotation
                JOINT rIndex2
                {
                  OFFSET -2.54057 -0.884171 1.56538
                  CHANNELS 3 Zrotation Xrotation Yrotation
                  End Site
                  {
                    OFFSET -1.62519 -0.234802 1.16502
                  }
                }
              }
              JOINT rMid1
              {
                OFFSET -8.24714 1.18213 3.41376
                CHANNELS 3 Zrotation Xrotation Yrotation
                JOINT rMid2
                {
                  OFFSET -3.10165 -0.590103 1.0647
                  CHANNELS 3 Zrotation Xrotation Yrotation
                  End Site
                  {
                    OFFSET -2.48547 -0.328903 0.83742
                  }
                }
              }
              JOINT rRing1
              {
                OFFSET -8.82822 0.546677 1.51678
                CHANNELS 3 Zrotation Xrotation Yrotation
                JOINT rRing2
                {
                  OFFSET -2.60934 -0.819778 -0.0198488
                  CHANNELS 3 Zrotation Xrotation Yrotation
                  End Site
                  {
                    OFFSET -2.33842 -0.294052 0.168128
                  }
                }
              }
              JOINT rPinky1
              {
                OFFSET -8.27202 -0.0477905 -0.4584
                CHANNELS 3 Zrotation Xrotation Yrotation
                JOINT rPinky2
                {
                  OFFSET -1.82734 -0.647385 -0.700984
                  CHANNELS 3 Zrotation Xrotation Yrotation
                  End Site
                  {
                    OFFSET -1.69225 -0.51767 -0.607171
                  }
                }
              }
            }
          }
        }
      }
      JOINT lCollar
      {
        OFFSET 2.68224 19.2634 -4.8768
        CHANNELS 3 Zrotation Xrotation Yrotation
        JOINT lShldr
        {
          OFFSET 8.77824 -1.95073 1.46304
          CHANNELS 3 Zrotation Xrotation Yrotation
          JOINT lForeArm
          {
            OFFSET 28.1742 -1.7115 0.48768
            CHANNELS 3 Zrotation Xrotation Yrotation
            JOINT lHand
            {
              OFFSET 22.5879 0.773209 7.07136
              CHANNELS 3 Zrotation Xrotation Yrotation
              JOINT lThumb1
              {
                OFFSET 1.2192 -0.487915 3.41376
                CHANNELS 3 Zrotation Xrotation Yrotation
                JOINT lThumb2
                {
                  OFFSET 3.37035 -0.52449 3.41376
                  CHANNELS 3 Zrotation Xrotation Yrotation
                  End Site
                  {
                    OFFSET 1.78271 -1.18214 1.43049
                  }
                }
              }
              JOINT lIndex1
              {
                OFFSET 7.75947 0.938293 5.60832
                CHANNELS 3 Zrotation Xrotation Yrotation
                JOINT lIndex2
                {
                  OFFSET 2.54057 -0.884171 1.56538
                  CHANNELS 3 Zrotation Xrotation Yrotation
                  End Site
                  {
                    OFFSET 1.62519 -0.234802 1.16502
                  }
                }
              }
              JOINT lMid1
              {
                OFFSET 8.24714 1.18213 3.41376
                CHANNELS 3 Zrotation Xrotation Yrotation
                JOINT lMid2
                {
                  OFFSET 3.10165 -0.590103 1.0647
                  CHANNELS 3 Zrotation Xrotation Yrotation
                  End Site
                  {
                    OFFSET 2.48547 -0.328903 0.83742
                  }
                }
              }
              JOINT lRing1
              {
                OFFSET 8.82822 0.546677 1.51678
                CHANNELS 3 Zrotation Xrotation Yrotation
                JOINT lRing2
                {
                  OFFSET 2.60934 -0.819778 -0.0198488
                  CHANNELS 3 Zrotation Xrotation Yrotation
                  End Site
                  {
                    OFFSET 2.33842 -0.294052 0.168128
                  }
                }
              }
              JOINT lPinky1
              {
                OFFSET 8.27202 -0.0477905 -0.4584
                CHANNELS 3 Zrotation Xrotation Yrotation
                JOINT lPinky2
                {
                  OFFSET 1.82734 -0.647385 -0.700984
                  CHANNELS 3 Zrotation Xrotation Yrotation
                  End Site
                  {
                    OFFSET 1.69225 -0.51767 -0.607171
                  }
                }
              }
            }
          }
        }
      }
    }
  }
  JOINT rButtock
  {
    OFFSET -8.77824 4.35084 1.2192
    CHANNELS 3 Zrotation Xrotation Yrotation
    JOINT rThigh
    {
      OFFSET 0 -1.70687 -2.19456
      CHANNELS 3 Zrotation Xrotation Yrotation
      JOINT rShin
      {
        OFFSET 0 -36.8199 0.73152
        CHANNELS 3 Zrotation Xrotation Yrotation
        JOINT rFoot
        {
          OFFSET 0.73152 -45.1104 -5.12064
          CHANNELS 3 Zrotation Xrotation Yrotation
          End Site
          {
            OFFSET -1.1221 -3.69964 12.103
          }
        }
      }
    }
  }
  JOINT lButtock
  {
    OFFSET 8.77824 4.35084 1.2192
    CHANNELS 3 Zrotation Xrotation Yrotation
    JOINT lThigh
    {
      OFFSET 0 -1.70687 -2.19456
      CHANNELS 3 Zrotation Xrotation Yrotation
      JOINT lShin
      {
        OFFSET 0 -36.8199 0.73152
        CHANNELS 3 Zrotation Xrotation Yrotation
        JOINT lFoot
        {
          OFFSET -0.73152 -45.1104 -5.12064
          CHANNELS 3 Zrotation Xrotation Yrotation
          End Site
          {
            OFFSET 1.1221 -3.69964 12.103
          }
        }
      }
    }
  }
}
MOTION
Frames:	5
Frame Time:	0.00833333
156.749 83.4221 -165.062 0.0 0.0 0.0 -2.71689 0.00115962 -0.0732886 -0.748392 0.0144141 -0.129497 -2.082e-14 -2.38542e-15 7.95139e-16 -6.25519e-14 -6.36111e-15 2.28602e-15 -0.0 0.0 0.0 -0.0 0.0 0.0 -1.01895e-14 -2.38775e-17 5.46658e-16 -2.18355e-13 -2.48481e-16 7.7526e-15 -3.78069e-12 1.11936e-12 1.97194e-13 -4.33125e-11 -1.19726e-12 1.36128e-12 -1.02157e-10 -1.74155e-13 3.40319e-12 -1.76428e-10 -2.98972e-13 5.86892e-12 -1.0215e-10 -1.72545e-13 3.40001e-12 7.73091 5.47488 0.417314 -1.02155e-10 -1.73539e-13 3.40319e-12 2.90554 0.965183 0.102902 -1.02153e-10 -1.73837e-13 3.40001e-12 10.2786 0.731801 0.0259123 -1.02161e-10 -1.72148e-13 3.40001e-12 2.22167 -0.733487 -0.20892 -1.01866e-14 -2.50422e-17 2.48481e-16 -2.23073e-13 8.07563e-17 5.96354e-15 -3.79286e-12 -1.13347e-12 1.49486e-13 -4.33108e-11 1.07652e-12 1.41853e-12 -1.02177e-10 -1.3272e-13 3.39683e-12 -1.76448e-10 -2.3218e-13 5.88641e-12 -1.02182e-10 -1.31993e-13 3.40001e-12 -7.73091 5.47488 -0.417314 -1.02178e-10 -1.32391e-13 3.39683e-12 -2.90554 0.965183 -0.102902 -1.02192e-10 -1.32391e-13 3.40081e-12 -10.2786 0.731801 -0.0259123 -1.02172e-10 -1.308e-13 3.39683e-12 -2.22167 -0.733487 0.20892 -2.03217e-16 0.0 -3.88251e-19 -1.56577 -1.93222 0.00882321 -0.00886247 -2.07861 -0.0729603 -0.497404 3.9993 0.138171 2.03217e-16 0.0 3.88251e-19 -2.55881 -8.62937 0.275694 -0.00721044 10.0516 -0.18692 0.546069 -1.43366 -0.0319524
155.36 80.9203 -169.399 -4.4324 -42.0351 18.6063 -2.3236 8.17993 -1.83205 -2.18183 1.00483 -0.579641 -0.56157 2.55061 -0.618645 4.87138 -11.1041 0.409439 -0.0 0.0 0.0 -0.0 0.0 0.0 1.40523e-13 -2.48549e-13 -2.57176e-13 21.0021 12.502 0.825231 -11.772 -8.7003 13.3214 0.000720879 0.595726 0.0837075 -3.87936e-10 3.21097e-10 5.91526e-10 -6.67475e-10 5.55809e-10 1.02441e-09 -3.87923e-10 3.21097e-10 5.91521e-10 7.73091 5.47488 0.417314 -3.87935e-10 3.21097e-10 5.91525e-10 2.90554 0.965183 0.102902 -3.87931e-10 3.21097e-10 5.91523e-10 10.2786 0.731801 0.0259123 -3.8794e-10 3.21099e-10 5.91525e-10 2.22167 -0.733487 -0.20892 1.40479e-13 -2.48548e-13 -2.57461e-13 -15.7568 12.1625 -10.5844 13.5265 -10.5989 -14.0736 -0.503615 -15.8584 1.93263 4.7345e-10 9.83896e-11 -2.26277e-10 8.27374e-10 1.77942e-10 -3.65281e-10 4.73446e-10 9.83929e-11 -2.26266e-10 -7.73091 5.47488 -0.417314 4.73451e-10 9.83929e-11 -2.26273e-10 -2.90554 0.965183 -0.102902 4.73437e-10 9.83929e-11 -2.2627e-10 -10.2786 0.731801 -0.0259123 4.73453e-10 9.83939e-11 -2.26274e-10 -2.22167 -0.733487 0.20892 -2.03217e-16 0.0 -3.88251e-19 -1.00509 -15.1355 1.03272 -0.0101767 12.0457 0.107769 -0.778932 -1.07626 -2.00305 2.03217e-16 0.0 3.88251e-19 -2.32218 -20.4819 3.62338 -0.00246758 21.4756 -0.372482 0.960438 -5.29004 2.15327
155.369 80.9264 -169.323 -4.1521 -41.3892 18.1851 -1.33917 16.7988 -3.82015 -3.68131 2.05133 -1.0571 -1.09422 5.24519 -1.27601 10.2065 -22.839 0.897723 -0.0 0.0 0.0 -0.0 0.0 0.0 3.12613e-13 -5.1725e-13 -5.41393e-13 42.7728 25.7075 1.84379 -19.8315 -16.3082 28.3178 -0.000409359 1.2239 0.172005 -7.33301e-10 6.77227e-10 1.24207e-09 -1.26117e-09 1.17227e-09 2.15105e-09 -7.33281e-10 6.77226e-10 1.24206e-09 7.73091 5.47488 0.417314 -7.33302e-10 6.77228e-10 1.24207e-09 2.90554 0.965183 0.102902 -7.33295e-10 6.77228e-10 1.24207e-09 10.2786 0.731801 0.0259123 -7.33305e-10 6.7723e-10 1.24207e-09 2.22167 -0.733487 -0.20892 3.1252e-13 -5.17247e-13 -5.41666e-13 -27.2599 23.5917 -23.325 22.1131 -19.6258 -30.3787 0.323431 -32.5567 4.5385 1.1165e-09 2.18585e-10 -4.60637e-10 1.94769e-09 3.94126e-10 -7.41698e-10 1.1165e-09 2.18592e-10 -4.60619e-10 -7.73091 5.47488 -0.417314 1.1165e-09 2.18592e-10 -4.6063e-10 -2.90554 0.965183 -0.102902 1.11649e-09 2.18592e-10 -4.60628e-10 -10.2786 0.731801 -0.0259123 1.1165e-09 2.18592e-10 -4.60632e-10 -2.22167 -0.733487 0.20892 -2.03217e-16 0.0 -3.88251e-19 0.167391 -29.0775 2.3305 -0.117705 26.9787 0.329814 -1.49035 -6.42697 -4.29126 2.03217e-16 0.0 3.88251e-19 -0.297333 -32.8348 7.96985 0.100391 33.5538 -0.622176 1.72253 -9.34674 4.50603
155.371 80.9268 -169.333 -4.1746 -41.4247 18.2383 0.093878 24.4383 -5.81628 -5.00196 2.98482 -1.48167 -1.51824 7.64825 -1.87074 15.1696 -33.3048 1.44223 -0.0 0.0 0.0 -0.0 0.0 0.0 4.41947e-13 -7.45598e-13 -7.7262e-13 61.6881 37.4707 3.04588 -23.6507 -20.3688 42.7223 -0.00306155 1.78716 0.251231 -9.59494e-10 9.63638e-10 1.76777e-09 -1.64957e-09 1.66803e-09 3.06148e-09 -9.59468e-10 9.63637e-10 1.76776e-09 7.73091 5.47488 0.417314 -9.59496e-10 9.63639e-10 1.76777e-09 2.90554 0.965183 0.102902 -9.59487e-10 9.63639e-10 1.76777e-09 10.2786 0.731801 0.0259123 -9.59498e-10 9.63642e-10 1.76777e-09 2.22167 -0.733487 -0.20892 4.41809e-13 -7.45594e-13 -7.72881e-13 -32.734 31.1226 -37.0278 25.4156 -23.912 -46.4382 2.97969 -47.3047 8.24005 1.6247e-09 2.95434e-10 -6.85624e-10 2.83502e-09 5.3429e-10 -1.10761e-09 1.6247e-09 2.95443e-10 -6.85599e-10 -7.73091 5.47488 -0.417314 1.62471e-09 2.95443e-10 -6.85613e-10 -2.90554 0.965183 -0.102902 1.62469e-09 2.95444e-10 -6.85613e-10 -10.2786 0.731801 -0.0259123 1.62471e-09 2.95443e-10 -6.85616e-10 -2.22167 -0.733487 0.20892 -2.03217e-16 0.0 -3.88251e-19 1.93968 -41.4807 3.96981 -0.342352 40.2927 0.605724 -2.49322 -11.161 -6.4054 2.03217e-16 0.0 3.88251e-19 3.70369 -43.5156 13.3468 0.319229 44.3209 -0.938976 2.68959 -12.9289 6.66591
155.384 80.9277 -169.333 -4.1598 -41.3576 18.2365 1.45042 29.7237 -7.39014 -5.90867 3.63659 -1.77241 -1.78822 9.32595 -2.29485 18.7877 -40.6048 1.92893 -0.0 0.0 0.0 -0.0 0.0 0.0 4.64387e-13 -8.73062e-13 -8.71373e-13 74.4592 45.6616 4.18444 -25.0113 -21.1203 52.9893 -0.00587604 2.18818 0.30768 -8.87756e-10 1.07575e-09 1.98137e-09 -1.52474e-09 1.862e-09 3.43139e-09 -8.87727e-10 1.07575e-09 1.98136e-09 7.73091 5.47488 0.417314 -8.87758e-10 1.07575e-09 1.98137e-09 2.90554 0.965183 0.102902 -8.87749e-10 1.07575e-09 1.98137e-09 10.2786 0.731801 0.0259123 -8.8776e-10 1.07575e-09 1.98138e-09 2.22167 -0.733487 -0.20892 4.64216e-13 -8.73063e-13 -8.71621e-13 -34.1135 34.1111 -47.8302 26.2407 -24.0684 -57.7876 6.97063 -57.4011 12.6954 1.79579e-09 2.63916e-10 -8.87178e-10 3.13989e-09 4.84405e-10 -1.44728e-09 1.79579e-09 2.63925e-10 -8.87149e-10 -7.73091 5.47488 -0.417314 1.7958e-09 2.63926e-10 -8.87165e-10 -2.90554 0.965183 -0.102902 1.79578e-09 2.63926e-10 -8.87165e-10 -10.2786 0.731801 -0.0259123 1.79579e-09 2.63926e-10 -8.87168e-10 -2.22167 -0.733487 0.20892 -2.03217e-16 0.0 -3.88251e-19 3.86788 -50.09 5.6964 -0.617981 49.5602 0.892675 -3.40812 -14.4212 -7.95029 2.03217e-16 0.0 3.88251e-19 8.38809 -50.6067 18.6515 0.58804 51.813 -1.25931 3.52606 -15.394 8.21313
